<svg xmlns="http://www.w3.org/2000/svg" viewBox="0 0 1600 900"><defs><linearGradient id="bg" x1="0" y1="0" x2="1" y2="1"><stop stop-color="#0c1740"/><stop offset="1" stop-color="#243a70"/></linearGradient><pattern id="scan" width="4" height="4" patternUnits="userSpaceOnUse"><path d="M0 3.5H4" stroke="#fff" stroke-opacity=".035"/></pattern></defs><rect width="1600" height="900" fill="url(#bg)"/><path d="M0 720Q400 520 800 690T1600 650V900H0Z" fill="#000" opacity=".28"/><g><path d="M330 150 l10 28 30 0-24 17 9 29-25-17-25 17 9-29-24-17 30 0z" fill="#d4b45c" opacity=".18"/><path d="M570 150 l10 28 30 0-24 17 9 29-25-17-25 17 9-29-24-17 30 0z" fill="#d4b45c" opacity=".18"/><path d="M800 150 l10 28 30 0-24 17 9 29-25-17-25 17 9-29-24-17 30 0z" fill="#d4b45c" opacity=".18"/><path d="M1030 150 l10 28 30 0-24 17 9 29-25-17-25 17 9-29-24-17 30 0z" fill="#d4b45c" opacity=".18"/><path d="M1270 150 l10 28 30 0-24 17 9 29-25-17-25 17 9-29-24-17 30 0z" fill="#d4b45c" opacity=".18"/></g><rect width="1600" height="900" fill="url(#scan)"/></svg>